<svg width="479" height="99" viewBox="0 0 479 99" fill="none" xmlns="http://www.w3.org/2000/svg">
<path fill-rule="evenodd" clip-rule="evenodd" d="M54.6097 36.4344C50.5087 30.6464 44.7619 23.8093 44.1182 16.7716C43.7145 12.3567 44.0067 7.42223 40.656 3.77569C39.6818 2.71362 38.3031 1.7338 36.935 1.10103C35.4741 0.427138 33.5924 0 31.937 0C30.3785 0 28.8175 0.216455 27.3232 0.615454C25.5612 1.08588 23.8106 1.64289 21.981 1.87233C19.8625 2.13569 18.1493 2.04261 16.0845 1.63496C14.8491 1.39108 14.5138 1.29801 13.2775 1.06279C12.602 0.935084 10.7415 0.460327 10.1628 0.974047C8.77519 2.20279 11.732 3.69849 12.6077 4.26199C14.5374 5.50589 15.3496 5.91571 17.1824 7.32555C19.6712 9.23829 21.6481 11.5183 22.4058 14.3748C22.6248 15.2016 22.6939 16.0328 22.7061 16.8813C22.8868 29.2098 -0.318965 41.3118 0.00332633 63.142C0.11564 70.8601 4.76689 72.1357 4.70422 67.847C4.63016 62.7625 6.66483 57.2754 8.77437 52.5624C9.26269 51.4715 10.8221 51.1461 10.4729 53.0285C9.91623 56.025 8.54242 61.1903 8.66694 69.6313C8.69705 71.6631 8.83378 73.7158 9.16502 75.7281C9.43279 77.3515 9.8267 78.9613 10.3647 80.5334C10.8139 81.8531 11.3844 83.1367 12.1177 84.3531C12.6948 85.3113 13.3629 86.2284 14.1516 87.0603C14.9313 87.8821 15.7687 88.4809 16.7071 89.1368C17.2524 89.5163 17.8628 89.8554 18.1241 90.4622C18.505 91.3475 17.2288 91.7076 16.5574 91.9781C15.8192 92.2732 15.1673 92.6001 14.4666 92.9017C13.4624 93.3368 12.4719 93.7961 11.4959 94.279C10.8904 94.5785 10.2214 94.7603 9.64196 95.1059C9.06818 95.4472 8.77763 95.9897 9.66718 96.1189C10.0798 96.1795 10.5185 96.0792 10.9336 96.0626C11.6384 96.0367 12.3814 95.9508 13.0553 96.1839C13.9677 96.4992 13.9196 97.2719 13.9579 98.0251C14.001 98.8404 14.6375 99.0995 15.4432 98.904C16.3914 98.6731 17.0506 98.0288 17.7774 97.4833C18.3031 97.0879 18.885 96.6716 19.5076 96.3996C20.7618 95.8483 22.2569 96.028 23.6038 96.0929C24.3485 96.1276 25.4074 96.4039 26.0129 95.8656C26.6331 95.3173 26.1895 94.3663 25.916 93.7675C25.6515 93.1874 25.3366 92.6325 25.0175 92.0734C24.871 91.8179 24.6619 91.5943 24.5308 91.3309C24.0035 90.2559 28.2315 89.442 28.8427 89.2948C30.8896 88.8071 33.0349 88.3792 35.1526 88.2183C37.1588 88.0646 39.375 88.0581 41.2713 88.7551C42.0786 89.0509 42.7452 89.5668 43.2856 90.1714C43.5924 90.5113 44.2915 91.5142 43.6657 91.9233C42.6947 92.5503 41.688 93.1037 40.739 93.7624C40.14 94.1787 39.5581 94.6131 39.0559 95.1182C38.6742 95.5027 38.5709 96.1716 39.3465 96.1341C40.3671 96.0937 41.3909 96.0395 42.4147 96.033C43.144 96.0309 43.931 96.1211 44.5528 96.4927C45.5603 97.1002 45.7785 98.3924 46.9057 98.8888C47.2271 99.0295 47.6097 99.0266 47.9499 98.9364C48.6954 98.738 49.0356 98.0504 49.4327 97.5244C49.7998 97.0359 50.1733 96.5684 50.7618 96.2784C51.1272 96.1016 51.5439 96.028 51.959 96.028C52.7061 96.028 53.463 96.0431 54.2118 96.1189C54.8002 96.1795 55.6092 96.4212 56.13 96.0641C57.1238 95.3866 54.5186 93.8735 53.9985 93.5857C52.803 92.9161 51.1052 92.2321 50.7333 90.8771C50.2995 89.2883 51.1899 87.6346 51.937 86.2327C52.7305 84.7493 53.8097 83.3856 54.4282 81.8286C54.9971 80.3956 55.4309 78.9057 55.6694 77.3984C56.9773 69.1378 54.8173 60.357 52.0973 52.473C51.7718 51.5271 51.3518 50.5941 51.045 49.6446C50.5729 48.159 52.1991 47.8033 53.03 49.2586C53.8268 50.6511 59.0372 59.5323 60.5615 66.1406C61.5268 70.3456 65.098 70.5145 64.9979 63.0424C64.8563 52.224 60.2449 44.392 54.6097 36.4344Z" fill="white"/>
<path fill-rule="evenodd" clip-rule="evenodd" d="M50.0599 69.7886C50.696 75.0635 51.3769 84.1631 43.8698 84.4675C41.8768 84.5492 39.4105 83.3546 35.7233 83.5724C29.4649 83.9369 27.607 85.9889 22.4937 85.2013C19.5705 84.7517 17.4089 83.3441 16.1815 80.9102C14.7879 78.1488 14.6568 75.0153 14.4417 72.0522C14.2004 68.7311 14.1977 65.4005 14.4336 62.0792C14.603 59.683 14.9003 57.2917 15.2684 54.9094C15.8793 50.9542 16.8575 47.0506 17.9114 43.1665C18.84 39.7384 19.7986 36.3102 21.5229 33.1013C22.7853 30.7533 24.6676 28.4974 27.445 27.3042C30.4773 26.0007 34.7321 25.9029 37.7213 27.2169C44.4774 30.1878 44.3055 37.0985 44.5238 42.7224C44.6892 47.0485 45.322 51.4925 46.2293 55.7501C47.2385 60.4796 49.4808 64.9865 50.0599 69.7886ZM39.1311 11.8218C40.5117 13.2112 40.4343 18.9433 38.1701 20.9346C36.8416 22.0999 34.6002 22.2486 32.8279 22.4636C30.8617 22.7017 28.9566 23.076 27.0279 23.483C25.1962 23.8691 25.3151 22.2025 27.089 21.0114C29.7304 19.2359 36.366 18.4378 37.9583 11.8218C38.0194 11.569 38.3444 11.03 39.1311 11.8218ZM29.5121 13.3236C31.3642 14.3555 34.0105 13.6887 35.4171 11.8343C36.8205 9.97922 36.4572 7.63748 34.6026 6.60345C32.748 5.57082 30.1042 6.23759 28.6984 8.0927C27.2918 9.9478 27.6575 12.2895 29.5121 13.3236Z" fill="black"/>
<path fill-rule="evenodd" clip-rule="evenodd" d="M31.5377 9.71386C32.2308 8.84251 33.4525 8.52343 34.2637 8.99751C35.075 9.47368 35.1703 10.5643 34.4771 11.4335C33.7848 12.3049 32.5664 12.6239 31.7535 12.1499C30.9423 11.6737 30.8454 10.5831 31.5377 9.71386Z" fill="white"/>
<path d="M104.883 46.4992C104.883 48.6645 104.361 50.6945 103.317 52.5892C102.312 54.4839 100.707 56.0112 98.5029 57.1712C96.3376 58.3312 93.5922 58.9112 90.2669 58.9112H83.4809V74.4552H75.3609V33.9712H90.2669C93.3989 33.9712 96.0669 34.5125 98.2709 35.5952C100.475 36.6779 102.118 38.1665 103.201 40.0612C104.322 41.9559 104.883 44.1019 104.883 46.4992ZM89.9189 52.3572C92.1616 52.3572 93.8242 51.8545 94.9069 50.8492C95.9896 49.8052 96.5309 48.3552 96.5309 46.4992C96.5309 42.5552 94.3269 40.5832 89.9189 40.5832H83.4809V52.3572H89.9189ZM114.766 38.4952C113.335 38.4952 112.137 38.0505 111.17 37.1612C110.242 36.2332 109.778 35.0925 109.778 33.7392C109.778 32.3859 110.242 31.2645 111.17 30.3752C112.137 29.4472 113.335 28.9832 114.766 28.9832C116.197 28.9832 117.376 29.4472 118.304 30.3752C119.271 31.2645 119.754 32.3859 119.754 33.7392C119.754 35.0925 119.271 36.2332 118.304 37.1612C117.376 38.0505 116.197 38.4952 114.766 38.4952ZM118.768 42.3232V74.4552H110.648V42.3232H118.768ZM144.597 41.8592C148.425 41.8592 151.518 43.0772 153.877 45.5132C156.235 47.9105 157.415 51.2745 157.415 55.6052V74.4552H149.295V56.7072C149.295 54.1552 148.657 52.2025 147.381 50.8492C146.105 49.4572 144.365 48.7612 142.161 48.7612C139.918 48.7612 138.139 49.4572 136.825 50.8492C135.549 52.2025 134.911 54.1552 134.911 56.7072V74.4552H126.791V42.3232H134.911V46.3252C135.993 44.9332 137.366 43.8505 139.029 43.0772C140.73 42.2652 142.586 41.8592 144.597 41.8592ZM177.722 41.8012C180.12 41.8012 182.227 42.2845 184.044 43.2512C185.862 44.1792 187.292 45.3972 188.336 46.9052V42.3232H196.514V74.6872C196.514 77.6645 195.915 80.3132 194.716 82.6332C193.518 84.9919 191.72 86.8479 189.322 88.2012C186.925 89.5932 184.025 90.2892 180.622 90.2892C176.06 90.2892 172.309 89.2259 169.37 87.0992C166.47 84.9725 164.827 82.0725 164.44 78.3992H172.502C172.928 79.8685 173.836 81.0285 175.228 81.8792C176.659 82.7685 178.38 83.2132 180.39 83.2132C182.749 83.2132 184.663 82.4979 186.132 81.0672C187.602 79.6752 188.336 77.5485 188.336 74.6872V69.6992C187.292 71.2072 185.842 72.4639 183.986 73.4692C182.169 74.4745 180.081 74.9772 177.722 74.9772C175.016 74.9772 172.541 74.2812 170.298 72.8892C168.056 71.4972 166.277 69.5445 164.962 67.0312C163.686 64.4792 163.048 61.5599 163.048 58.2732C163.048 55.0252 163.686 52.1445 164.962 49.6312C166.277 47.1179 168.036 45.1845 170.24 43.8312C172.483 42.4779 174.977 41.8012 177.722 41.8012ZM188.336 58.3892C188.336 56.4172 187.95 54.7352 187.176 53.3432C186.403 51.9125 185.359 50.8299 184.044 50.0952C182.73 49.3219 181.318 48.9352 179.81 48.9352C178.302 48.9352 176.91 49.3025 175.634 50.0372C174.358 50.7719 173.314 51.8545 172.502 53.2852C171.729 54.6772 171.342 56.3399 171.342 58.2732C171.342 60.2065 171.729 61.9079 172.502 63.3772C173.314 64.8079 174.358 65.9099 175.634 66.6832C176.949 67.4565 178.341 67.8432 179.81 67.8432C181.318 67.8432 182.73 67.4759 184.044 66.7412C185.359 65.9679 186.403 64.8852 187.176 63.4932C187.95 62.0625 188.336 60.3612 188.336 58.3892ZM234.779 42.3232V74.4552H226.601V70.3952C225.557 71.7872 224.184 72.8892 222.483 73.7012C220.82 74.4745 219.003 74.8612 217.031 74.8612C214.518 74.8612 212.294 74.3392 210.361 73.2952C208.428 72.2125 206.9 70.6465 205.779 68.5972C204.696 66.5092 204.155 64.0345 204.155 61.1732V42.3232H212.275V60.0132C212.275 62.5652 212.913 64.5372 214.189 65.9292C215.465 67.2825 217.205 67.9592 219.409 67.9592C221.652 67.9592 223.411 67.2825 224.687 65.9292C225.963 64.5372 226.601 62.5652 226.601 60.0132V42.3232H234.779ZM246.909 38.4952C245.478 38.4952 244.279 38.0505 243.313 37.1612C242.385 36.2332 241.921 35.0925 241.921 33.7392C241.921 32.3859 242.385 31.2645 243.313 30.3752C244.279 29.4472 245.478 28.9832 246.909 28.9832C248.339 28.9832 249.519 29.4472 250.447 30.3752C251.413 31.2645 251.897 32.3859 251.897 33.7392C251.897 35.0925 251.413 36.2332 250.447 37.1612C249.519 38.0505 248.339 38.4952 246.909 38.4952ZM250.911 42.3232V74.4552H242.791V42.3232H250.911ZM276.739 41.8592C280.567 41.8592 283.66 43.0772 286.019 45.5132C288.378 47.9105 289.557 51.2745 289.557 55.6052V74.4552H281.437V56.7072C281.437 54.1552 280.799 52.2025 279.523 50.8492C278.247 49.4572 276.507 48.7612 274.303 48.7612C272.06 48.7612 270.282 49.4572 268.967 50.8492C267.691 52.2025 267.053 54.1552 267.053 56.7072V74.4552H258.933V42.3232H267.053V46.3252C268.136 44.9332 269.508 43.8505 271.171 43.0772C272.872 42.2652 274.728 41.8592 276.739 41.8592ZM295.191 58.2732C295.191 55.0252 295.829 52.1445 297.105 49.6312C298.42 47.1179 300.179 45.1845 302.383 43.8312C304.626 42.4779 307.12 41.8012 309.865 41.8012C312.262 41.8012 314.35 42.2845 316.129 43.2512C317.946 44.2179 319.396 45.4359 320.479 46.9052V42.3232H328.657V74.4552H320.479V69.7572C319.435 71.2652 317.985 72.5219 316.129 73.5272C314.312 74.4939 312.204 74.9772 309.807 74.9772C307.1 74.9772 304.626 74.2812 302.383 72.8892C300.179 71.4972 298.42 69.5445 297.105 67.0312C295.829 64.4792 295.191 61.5599 295.191 58.2732ZM320.479 58.3892C320.479 56.4172 320.092 54.7352 319.319 53.3432C318.546 51.9125 317.502 50.8299 316.187 50.0952C314.872 49.3219 313.461 48.9352 311.953 48.9352C310.445 48.9352 309.053 49.3025 307.777 50.0372C306.501 50.7719 305.457 51.8545 304.645 53.2852C303.872 54.6772 303.485 56.3399 303.485 58.2732C303.485 60.2065 303.872 61.9079 304.645 63.3772C305.457 64.8079 306.501 65.9099 307.777 66.6832C309.092 67.4565 310.484 67.8432 311.953 67.8432C313.461 67.8432 314.872 67.4759 316.187 66.7412C317.502 65.9679 318.546 64.8852 319.319 63.4932C320.092 62.0625 320.479 60.3612 320.479 58.3892ZM354.393 41.8592C358.221 41.8592 361.315 43.0772 363.673 45.5132C366.032 47.9105 367.211 51.2745 367.211 55.6052V74.4552H359.091V56.7072C359.091 54.1552 358.453 52.2025 357.177 50.8492C355.901 49.4572 354.161 48.7612 351.957 48.7612C349.715 48.7612 347.936 49.4572 346.621 50.8492C345.345 52.2025 344.707 54.1552 344.707 56.7072V74.4552H336.587V42.3232H344.707V46.3252C345.79 44.9332 347.163 43.8505 348.825 43.0772C350.527 42.2652 352.383 41.8592 354.393 41.8592ZM372.845 58.2732C372.845 55.0252 373.483 52.1445 374.759 49.6312C376.074 47.1179 377.852 45.1845 380.095 43.8312C382.338 42.4779 384.832 41.8012 387.577 41.8012C389.665 41.8012 391.656 42.2652 393.551 43.1932C395.446 44.0825 396.954 45.2812 398.075 46.7892V31.5352H406.311V74.4552H398.075V69.6992C397.07 71.2845 395.658 72.5605 393.841 73.5272C392.024 74.4939 389.916 74.9772 387.519 74.9772C384.812 74.9772 382.338 74.2812 380.095 72.8892C377.852 71.4972 376.074 69.5445 374.759 67.0312C373.483 64.4792 372.845 61.5599 372.845 58.2732ZM398.133 58.3892C398.133 56.4172 397.746 54.7352 396.973 53.3432C396.2 51.9125 395.156 50.8299 393.841 50.0952C392.526 49.3219 391.115 48.9352 389.607 48.9352C388.099 48.9352 386.707 49.3025 385.431 50.0372C384.155 50.7719 383.111 51.8545 382.299 53.2852C381.526 54.6772 381.139 56.3399 381.139 58.2732C381.139 60.2065 381.526 61.9079 382.299 63.3772C383.111 64.8079 384.155 65.9099 385.431 66.6832C386.746 67.4565 388.138 67.8432 389.607 67.8432C391.115 67.8432 392.526 67.4759 393.841 66.7412C395.156 65.9679 396.2 64.8852 396.973 63.4932C397.746 62.0625 398.133 60.3612 398.133 58.3892ZM428.51 74.9772C425.416 74.9772 422.632 74.3005 420.158 72.9472C417.683 71.5552 415.73 69.6025 414.3 67.0892C412.908 64.5759 412.212 61.6759 412.212 58.3892C412.212 55.1025 412.927 52.2025 414.358 49.6892C415.827 47.1759 417.818 45.2425 420.332 43.8892C422.845 42.4972 425.648 41.8012 428.742 41.8012C431.835 41.8012 434.638 42.4972 437.152 43.8892C439.665 45.2425 441.637 47.1759 443.068 49.6892C444.537 52.2025 445.272 55.1025 445.272 58.3892C445.272 61.6759 444.518 64.5759 443.01 67.0892C441.54 69.6025 439.53 71.5552 436.978 72.9472C434.464 74.3005 431.642 74.9772 428.51 74.9772ZM428.51 67.9012C429.979 67.9012 431.352 67.5532 432.628 66.8572C433.942 66.1225 434.986 65.0399 435.76 63.6092C436.533 62.1785 436.92 60.4385 436.92 58.3892C436.92 55.3345 436.108 52.9952 434.484 51.3712C432.898 49.7085 430.946 48.8772 428.626 48.8772C426.306 48.8772 424.353 49.7085 422.768 51.3712C421.221 52.9952 420.448 55.3345 420.448 58.3892C420.448 61.4439 421.202 63.8025 422.71 65.4652C424.256 67.0892 426.19 67.9012 428.51 67.9012Z" fill="white"/>
</svg>
